<?xml version="1.0" encoding="UTF-8"?>
<svg width="60px" height="60px" viewBox="0 0 60 60" version="1.1" xmlns="http://www.w3.org/2000/svg" xmlns:xlink="http://www.w3.org/1999/xlink">
    <!-- Generator: Sketch 52.6 (67491) - http://www.bohemiancoding.com/sketch -->
    <title>Gradient</title>
    <desc>Created with Sketch.</desc>
    <defs>
        <linearGradient x1="50%" y1="0%" x2="50%" y2="100%" id="linearGradient-1">
            <stop stop-color="#FAD961" offset="0%"></stop>
            <stop stop-color="#F76B1C" offset="100%"></stop>
        </linearGradient>
        <path d="M20.9049479,27.0703125 C20.9960937,27.4869792 21.0416667,27.9166667 21.0416667,28.3528646 C21.0416667,33.6393229 17.5130208,36.6666667 12.265625,36.6666667 C6.03515625,36.6666667 3.33333333,31.6601562 3.33333333,25.9635417 C4.01041667,26.4257812 6.38671875,28.3398438 7.15494792,28.3398438 C7.61067708,28.3398438 8.00130208,28.0794271 8.1640625,27.6497396 C9.70052083,23.6002604 12.4934896,22.6692708 15.5143229,22.6106771 C16.5299479,24.8111979 18.515625,26.4908854 20.9049479,27.0703125 Z M33.3203125,3.33333333 C32.3828125,3.33333333 31.5039063,3.75 30.8333333,4.35546875 C18.1901042,15.703125 16.875,15.9700521 16.875,19.3098958 C16.875,22.4869792 19.5117188,25.2083333 22.7473958,25.2083333 C26.5885417,25.2083333 28.8151042,22.3828125 35.8072917,9.27083333 C36.2630208,8.37890625 36.6666667,7.41536458 36.6666667,6.41276042 C36.6666667,4.61588542 35.0585938,3.33333333 33.3203125,3.33333333 Z" id="path-2"></path>
    </defs>
    <g id="Page-1" stroke="none" stroke-width="1" fill="none" fill-rule="evenodd">
        <g id="Desktop-HD" transform="translate(-606.000000, -623.000000)">
            <g id="Gradient" transform="translate(606.000000, 623.000000)">
                <path d="M17.3062251,-6.99192208e-16 L42.6937749,6.99192208e-16 C48.7115264,-4.06250808e-16 50.8937085,0.626572875 53.0937085,1.80314575 C55.2937085,2.97971863 57.0202814,4.7062915 58.1968542,6.9062915 C59.3734271,9.1062915 60,11.2884736 60,17.3062251 L60,42.6937749 C60,48.7115264 59.3734271,50.8937085 58.1968542,53.0937085 C57.0202814,55.2937085 55.2937085,57.0202814 53.0937085,58.1968542 C50.8937085,59.3734271 48.7115264,60 42.6937749,60 L17.3062251,60 C11.2884736,60 9.1062915,59.3734271 6.9062915,58.1968542 C4.7062915,57.0202814 2.97971863,55.2937085 1.80314575,53.0937085 C0.626572875,50.8937085 2.70833872e-16,48.7115264 -4.66128138e-16,42.6937749 L4.66128138e-16,17.3062251 C-2.70833872e-16,11.2884736 0.626572875,9.1062915 1.80314575,6.9062915 C2.97971863,4.7062915 4.7062915,2.97971863 6.9062915,1.80314575 C9.1062915,0.626572875 11.2884736,4.06250808e-16 17.3062251,-6.99192208e-16 Z" id="App-Icon" fill="url(#linearGradient-1)"></path>
                <g id="Icons/Solid/paint-brush" transform="translate(10.000000, 10.000000)">
                    <mask id="mask-3" fill="white">
                        <use xlink:href="#path-2"></use>
                    </mask>
                    <use id="paint-brush" fill="#000000" fill-rule="nonzero" xlink:href="#path-2"></use>
                    <g id="Colors/5th" mask="url(#mask-3)" fill="#FFFFFF" fill-rule="evenodd">
                        <rect id="Rectangle" x="0" y="0" width="40" height="40"></rect>
                    </g>
                </g>
            </g>
        </g>
    </g>
</svg>