<?xml version="1.0" encoding="UTF-8"?>
<svg width="60px" height="60px" viewBox="0 0 60 60" version="1.1" xmlns="http://www.w3.org/2000/svg" xmlns:xlink="http://www.w3.org/1999/xlink">
    <!-- Generator: Sketch 52.6 (67491) - http://www.bohemiancoding.com/sketch -->
    <title>LaunchPad</title>
    <desc>Created with Sketch.</desc>
    <defs>
        <linearGradient x1="50%" y1="0%" x2="50%" y2="100%" id="linearGradient-1">
            <stop stop-color="#FC3A77" offset="0%"></stop>
            <stop stop-color="#FC643F" offset="100%"></stop>
        </linearGradient>
        <path d="M36.2192507,4.57676396 C36.1346152,4.17964737 35.8221152,3.86716219 35.4249798,3.78253078 C33.3286257,3.33333333 31.6880007,3.33333333 30.0538861,3.33333333 C23.3351361,3.33333333 19.3051882,6.92691293 16.2973757,11.6662715 L9.5135215,11.6662715 C8.32862566,11.6662715 7.2478965,12.3368127 6.72055275,13.3914501 L3.50440691,19.8234368 C2.98357358,20.8650541 3.73878191,22.0824443 4.9041465,22.0824443 L11.0955527,22.0824443 C10.7114382,22.9157381 10.3208132,23.7425218 9.92367775,24.536755 C9.72185483,24.9403817 9.79997983,25.4221297 10.1189902,25.741125 L14.2596152,29.8815536 C14.5786257,30.2005489 15.0603965,30.2786702 15.4640423,30.0768569 C16.2583132,29.6797403 17.0851361,29.2956439 17.9184694,28.9115476 L17.9184694,35.1026602 C17.9184694,36.2614595 19.1424277,37.016632 20.177584,36.5023334 L26.6033652,33.2863401 C27.6645632,32.7590214 28.3286257,31.6718333 28.3286257,30.4935038 L28.3286257,23.6969511 C33.0551882,20.6827711 36.661959,16.639994 36.661959,9.95411314 C36.6684694,8.31356593 36.6684694,6.67301872 36.2192507,4.57676396 Z M29.3768027,13.7495061 C27.6515423,13.7495061 26.2518027,12.3498329 26.2518027,10.6246543 C26.2518027,8.89947565 27.6515423,7.49980243 29.3768027,7.49980243 C31.1020632,7.49980243 32.5018027,8.89947565 32.5018027,10.6246543 C32.5018027,12.3498329 31.1020632,13.7495061 29.3768027,13.7495061 Z" id="path-2"></path>
    </defs>
    <g id="Page-1" stroke="none" stroke-width="1" fill="none" fill-rule="evenodd">
        <g id="Desktop-HD" transform="translate(-416.000000, -623.000000)">
            <g id="LaunchPad" transform="translate(416.000000, 623.000000)">
                <path d="M17.3062251,-6.99192208e-16 L42.6937749,6.99192208e-16 C48.7115264,-4.06250808e-16 50.8937085,0.626572875 53.0937085,1.80314575 C55.2937085,2.97971863 57.0202814,4.7062915 58.1968542,6.9062915 C59.3734271,9.1062915 60,11.2884736 60,17.3062251 L60,42.6937749 C60,48.7115264 59.3734271,50.8937085 58.1968542,53.0937085 C57.0202814,55.2937085 55.2937085,57.0202814 53.0937085,58.1968542 C50.8937085,59.3734271 48.7115264,60 42.6937749,60 L17.3062251,60 C11.2884736,60 9.1062915,59.3734271 6.9062915,58.1968542 C4.7062915,57.0202814 2.97971863,55.2937085 1.80314575,53.0937085 C0.626572875,50.8937085 2.70833872e-16,48.7115264 -4.66128138e-16,42.6937749 L4.66128138e-16,17.3062251 C-2.70833872e-16,11.2884736 0.626572875,9.1062915 1.80314575,6.9062915 C2.97971863,4.7062915 4.7062915,2.97971863 6.9062915,1.80314575 C9.1062915,0.626572875 11.2884736,4.06250808e-16 17.3062251,-6.99192208e-16 Z" id="App-Icon" fill="url(#linearGradient-1)"></path>
                <g id="Icons/Solid/rocket" transform="translate(10.000000, 10.000000)">
                    <mask id="mask-3" fill="white">
                        <use xlink:href="#path-2"></use>
                    </mask>
                    <use id="rocket" fill="#000000" fill-rule="nonzero" xlink:href="#path-2"></use>
                    <g id="Colors/5th" mask="url(#mask-3)" fill="#FFFFFF" fill-rule="evenodd">
                        <rect id="Rectangle" x="0" y="0" width="40" height="40"></rect>
                    </g>
                </g>
            </g>
        </g>
    </g>
</svg>