<?xml version="1.0" encoding="UTF-8"?>
<svg width="60px" height="60px" viewBox="0 0 60 60" version="1.1" xmlns="http://www.w3.org/2000/svg" xmlns:xlink="http://www.w3.org/1999/xlink">
    <!-- Generator: Sketch 52.6 (67491) - http://www.bohemiancoding.com/sketch -->
    <title>Max Calc</title>
    <desc>Created with Sketch.</desc>
    <defs>
        <linearGradient x1="0%" y1="50%" x2="100%" y2="50%" id="linearGradient-1">
            <stop stop-color="#6F06F5" offset="0%"></stop>
            <stop stop-color="#3F74FF" offset="100%"></stop>
        </linearGradient>
        <path d="M5,33.5416667 L5,6.45833333 C5,4.73242188 6.4390625,3.33333333 8.21428571,3.33333333 L31.7857143,3.33333333 C33.5609375,3.33333333 35,4.73242188 35,6.45833333 L35,33.5416667 C35,35.2675781 33.5609375,36.6666667 31.7857143,36.6666667 L8.21428571,36.6666667 C6.4390625,36.6666667 5,35.2675781 5,33.5416667 Z M30.7142857,15.0520833 L30.7142857,8.28125 C30.7142857,7.84980469 30.3544866,7.5 29.9107143,7.5 L10.0892857,7.5 C9.64551339,7.5 9.28571429,7.84980469 9.28571429,8.28125 L9.28571429,15.0520833 C9.28571429,15.4835286 9.64551339,15.8333333 10.0892857,15.8333333 L29.9107143,15.8333333 C30.3544866,15.8333333 30.7142857,15.4835286 30.7142857,15.0520833 Z M13.5714286,23.3854167 L13.5714286,20.78125 C13.5714286,20.3498047 13.2116295,20 12.7678571,20 L10.0892857,20 C9.64551339,20 9.28571429,20.3498047 9.28571429,20.78125 L9.28571429,23.3854167 C9.28571429,23.816862 9.64551339,24.1666667 10.0892857,24.1666667 L12.7678571,24.1666667 C13.2116295,24.1666667 13.5714286,23.816862 13.5714286,23.3854167 Z M30.7142857,31.71875 L30.7142857,20.78125 C30.7142857,20.3498047 30.3544866,20 29.9107143,20 L27.2321429,20 C26.7883705,20 26.4285714,20.3498047 26.4285714,20.78125 L26.4285714,31.71875 C26.4285714,32.1501953 26.7883705,32.5 27.2321429,32.5 L29.9107143,32.5 C30.3544866,32.5 30.7142857,32.1501953 30.7142857,31.71875 Z M13.5714286,31.71875 L13.5714286,29.1145833 C13.5714286,28.683138 13.2116295,28.3333333 12.7678571,28.3333333 L10.0892857,28.3333333 C9.64551339,28.3333333 9.28571429,28.683138 9.28571429,29.1145833 L9.28571429,31.71875 C9.28571429,32.1501953 9.64551339,32.5 10.0892857,32.5 L12.7678571,32.5 C13.2116295,32.5 13.5714286,32.1501953 13.5714286,31.71875 Z M22.1428571,23.3854167 L22.1428571,20.78125 C22.1428571,20.3498047 21.783058,20 21.3392857,20 L18.6607143,20 C18.216942,20 17.8571429,20.3498047 17.8571429,20.78125 L17.8571429,23.3854167 C17.8571429,23.816862 18.216942,24.1666667 18.6607143,24.1666667 L21.3392857,24.1666667 C21.783058,24.1666667 22.1428571,23.816862 22.1428571,23.3854167 Z M22.1428571,31.71875 L22.1428571,29.1145833 C22.1428571,28.683138 21.783058,28.3333333 21.3392857,28.3333333 L18.6607143,28.3333333 C18.216942,28.3333333 17.8571429,28.683138 17.8571429,29.1145833 L17.8571429,31.71875 C17.8571429,32.1501953 18.216942,32.5 18.6607143,32.5 L21.3392857,32.5 C21.783058,32.5 22.1428571,32.1501953 22.1428571,31.71875 Z" id="path-2"></path>
    </defs>
    <g id="Page-1" stroke="none" stroke-width="1" fill="none" fill-rule="evenodd">
        <g id="Desktop-HD" transform="translate(-513.000000, -623.000000)">
            <g id="Max-Calc" transform="translate(513.000000, 623.000000)">
                <path d="M17.3062251,-6.99192208e-16 L42.6937749,6.99192208e-16 C48.7115264,-4.06250808e-16 50.8937085,0.626572875 53.0937085,1.80314575 C55.2937085,2.97971863 57.0202814,4.7062915 58.1968542,6.9062915 C59.3734271,9.1062915 60,11.2884736 60,17.3062251 L60,42.6937749 C60,48.7115264 59.3734271,50.8937085 58.1968542,53.0937085 C57.0202814,55.2937085 55.2937085,57.0202814 53.0937085,58.1968542 C50.8937085,59.3734271 48.7115264,60 42.6937749,60 L17.3062251,60 C11.2884736,60 9.1062915,59.3734271 6.9062915,58.1968542 C4.7062915,57.0202814 2.97971863,55.2937085 1.80314575,53.0937085 C0.626572875,50.8937085 2.70833872e-16,48.7115264 -4.66128138e-16,42.6937749 L4.66128138e-16,17.3062251 C-2.70833872e-16,11.2884736 0.626572875,9.1062915 1.80314575,6.9062915 C2.97971863,4.7062915 4.7062915,2.97971863 6.9062915,1.80314575 C9.1062915,0.626572875 11.2884736,4.06250808e-16 17.3062251,-6.99192208e-16 Z" id="App-Icon" fill="url(#linearGradient-1)"></path>
                <g id="Icons/Solid/calculator" transform="translate(10.000000, 10.000000)">
                    <mask id="mask-3" fill="white">
                        <use xlink:href="#path-2"></use>
                    </mask>
                    <use id="calculator" fill="#000000" fill-rule="nonzero" xlink:href="#path-2"></use>
                    <g id="Colors/5th" mask="url(#mask-3)" fill="#FFFFFF" fill-rule="evenodd">
                        <rect id="Rectangle" x="0" y="0" width="40" height="40"></rect>
                    </g>
                </g>
            </g>
        </g>
    </g>
</svg>