<?xml version="1.0" encoding="UTF-8"?>
<svg width="60px" height="60px" viewBox="0 0 60 60" version="1.1" xmlns="http://www.w3.org/2000/svg" xmlns:xlink="http://www.w3.org/1999/xlink">
    <!-- Generator: Sketch 52.6 (67491) - http://www.bohemiancoding.com/sketch -->
    <title>MMP</title>
    <desc>Created with Sketch.</desc>
    <defs>
        <linearGradient x1="50%" y1="0%" x2="50%" y2="100%" id="linearGradient-1">
            <stop stop-color="#B4EC51" offset="0%"></stop>
            <stop stop-color="#429321" offset="100%"></stop>
        </linearGradient>
        <path d="M16.71925,14.3603516 C16.71925,12.8410156 18.1774167,11.8592448 20.4340677,11.8592448 C22.2436406,11.8592448 24.0981719,12.6576172 25.6111146,13.7038411 C26.0092396,13.9791667 26.5678333,13.8570964 26.8010885,13.4423177 L28.3957552,10.6070964 C28.5751146,10.2882161 28.5038177,9.89153646 28.2214063,9.65136719 C26.5773802,8.253125 24.217474,7.43196615 22.0403802,7.19003906 L22.0403802,4.11458333 C22.0403802,3.68313802 21.6765833,3.33333333 21.2278802,3.33333333 L18.5195469,3.33333333 C18.0708438,3.33333333 17.7070469,3.68313802 17.7070469,4.11458333 L17.7070469,7.35885417 C13.7375104,8.22408854 11.1190938,10.9992839 11.1190938,14.4317057 C11.1190938,22.4742188 23.629224,21.6458984 23.629224,25.461263 C23.629224,26.7518229 22.5248333,28.1408203 20.0999948,28.1408203 C18.0178958,28.1408203 15.838974,27.1069661 14.1519531,25.8044271 C13.7924219,25.5268229 13.2661927,25.5886068 12.9901458,25.94375 L10.9325573,28.5913411 C10.6869792,28.9073568 10.7243542,29.3502604 11.0207135,29.6230469 C12.6490313,31.1217448 15.0323646,32.3089193 17.7069792,32.7462891 L17.7069792,35.8854167 C17.7069792,36.316862 18.070776,36.6666667 18.5194792,36.6666667 L21.2278125,36.6666667 C21.6765156,36.6666667 22.0403125,36.316862 22.0403125,35.8854167 L22.0403125,32.7970052 C26.4901042,32.1319661 29.2293125,28.94375 29.2293125,25.2113281 C29.2293802,17.4191406 16.71925,18.4595703 16.71925,14.3603516 Z" id="path-2"></path>
    </defs>
    <g id="Page-1" stroke="none" stroke-width="1" fill="none" fill-rule="evenodd">
        <g id="Desktop-HD" transform="translate(-687.000000, -623.000000)">
            <g id="MMP" transform="translate(687.000000, 623.000000)">
                <path d="M17.3062251,-6.99192208e-16 L42.6937749,6.99192208e-16 C48.7115264,-4.06250808e-16 50.8937085,0.626572875 53.0937085,1.80314575 C55.2937085,2.97971863 57.0202814,4.7062915 58.1968542,6.9062915 C59.3734271,9.1062915 60,11.2884736 60,17.3062251 L60,42.6937749 C60,48.7115264 59.3734271,50.8937085 58.1968542,53.0937085 C57.0202814,55.2937085 55.2937085,57.0202814 53.0937085,58.1968542 C50.8937085,59.3734271 48.7115264,60 42.6937749,60 L17.3062251,60 C11.2884736,60 9.1062915,59.3734271 6.9062915,58.1968542 C4.7062915,57.0202814 2.97971863,55.2937085 1.80314575,53.0937085 C0.626572875,50.8937085 2.70833872e-16,48.7115264 -4.66128138e-16,42.6937749 L4.66128138e-16,17.3062251 C-2.70833872e-16,11.2884736 0.626572875,9.1062915 1.80314575,6.9062915 C2.97971863,4.7062915 4.7062915,2.97971863 6.9062915,1.80314575 C9.1062915,0.626572875 11.2884736,4.06250808e-16 17.3062251,-6.99192208e-16 Z" id="App-Icon" fill="url(#linearGradient-1)"></path>
                <g id="Icons/Solid/dollar-sign" transform="translate(10.000000, 10.000000)">
                    <mask id="mask-3" fill="white">
                        <use xlink:href="#path-2"></use>
                    </mask>
                    <use id="dollar-sign" fill="#000000" fill-rule="nonzero" xlink:href="#path-2"></use>
                    <g id="Colors/5th" mask="url(#mask-3)" fill="#FFFFFF" fill-rule="evenodd">
                        <rect id="Rectangle" x="0" y="0" width="40" height="40"></rect>
                    </g>
                </g>
            </g>
        </g>
    </g>
</svg>