<?xml version="1.0" encoding="UTF-8"?>
<svg width="60px" height="60px" viewBox="0 0 60 60" version="1.1" xmlns="http://www.w3.org/2000/svg" xmlns:xlink="http://www.w3.org/1999/xlink">
    <!-- Generator: Sketch 52.6 (67491) - http://www.bohemiancoding.com/sketch -->
    <title>OneStream</title>
    <desc>Created with Sketch.</desc>
    <defs>
        <linearGradient x1="50%" y1="0%" x2="50%" y2="100%" id="linearGradient-1">
            <stop stop-color="#FD297F" offset="0%"></stop>
            <stop stop-color="#BD12FA" offset="100%"></stop>
        </linearGradient>
        <path d="M13.75,20 L13.75,9.58333333 C13.75,6.13157552 16.5482422,3.33333333 20,3.33333333 C23.4517578,3.33333333 26.25,6.13157552 26.25,9.58333333 L26.25,20 C26.25,23.4517578 23.4517578,26.25 20,26.25 C16.5482422,26.25 13.75,23.4517578 13.75,20 Z M30.15625,16.3541667 L28.59375,16.3541667 C28.1623047,16.3541667 27.8125,16.7039714 27.8125,17.1354167 L27.8125,19.9140625 C27.8125,24.2250651 24.3566406,27.7876302 20.0457031,27.8123698 C15.7169922,27.8372396 12.1875,24.3230469 12.1875,20 L12.1875,17.1354167 C12.1875,16.7039714 11.8376953,16.3541667 11.40625,16.3541667 L9.84375,16.3541667 C9.41230469,16.3541667 9.0625,16.7039714 9.0625,17.1354167 L9.0625,20 C9.0625,25.5005208 13.1440755,30.0649089 18.4375,30.8253906 L18.4375,33.8020833 L14.0104167,33.8020833 C13.5789714,33.8020833 13.2291667,34.151888 13.2291667,34.5833333 L13.2291667,35.8854167 C13.2291667,36.316862 13.5789714,36.6666667 14.0104167,36.6666667 L25.9895833,36.6666667 C26.4210286,36.6666667 26.7708333,36.316862 26.7708333,35.8854167 L26.7708333,34.5833333 C26.7708333,34.151888 26.4210286,33.8020833 25.9895833,33.8020833 L21.5625,33.8020833 L21.5625,30.8253906 C26.8559245,30.0649089 30.9375,25.5005208 30.9375,20 L30.9375,17.1354167 C30.9375,16.7039714 30.5876953,16.3541667 30.15625,16.3541667 Z" id="path-2"></path>
    </defs>
    <g id="Page-1" stroke="none" stroke-width="1" fill="none" fill-rule="evenodd">
        <g id="Desktop-HD" transform="translate(-780.000000, -623.000000)">
            <g id="OneStream" transform="translate(780.000000, 623.000000)">
                <path d="M17.3062251,-6.99192208e-16 L42.6937749,6.99192208e-16 C48.7115264,-4.06250808e-16 50.8937085,0.626572875 53.0937085,1.80314575 C55.2937085,2.97971863 57.0202814,4.7062915 58.1968542,6.9062915 C59.3734271,9.1062915 60,11.2884736 60,17.3062251 L60,42.6937749 C60,48.7115264 59.3734271,50.8937085 58.1968542,53.0937085 C57.0202814,55.2937085 55.2937085,57.0202814 53.0937085,58.1968542 C50.8937085,59.3734271 48.7115264,60 42.6937749,60 L17.3062251,60 C11.2884736,60 9.1062915,59.3734271 6.9062915,58.1968542 C4.7062915,57.0202814 2.97971863,55.2937085 1.80314575,53.0937085 C0.626572875,50.8937085 2.70833872e-16,48.7115264 -4.66128138e-16,42.6937749 L4.66128138e-16,17.3062251 C-2.70833872e-16,11.2884736 0.626572875,9.1062915 1.80314575,6.9062915 C2.97971863,4.7062915 4.7062915,2.97971863 6.9062915,1.80314575 C9.1062915,0.626572875 11.2884736,4.06250808e-16 17.3062251,-6.99192208e-16 Z" id="App-Icon" fill="url(#linearGradient-1)"></path>
                <g id="Icons/Solid/microphone" transform="translate(10.000000, 10.000000)">
                    <mask id="mask-3" fill="white">
                        <use xlink:href="#path-2"></use>
                    </mask>
                    <use id="microphone" fill="#000000" fill-rule="nonzero" xlink:href="#path-2"></use>
                    <g id="Colors/5th" mask="url(#mask-3)" fill="#FFFFFF" fill-rule="evenodd">
                        <rect id="Rectangle" x="0" y="0" width="40" height="40"></rect>
                    </g>
                </g>
            </g>
        </g>
    </g>
</svg>